<?xml version="1.0" encoding="utf-8" ?>
<svg baseProfile="full" height="454.2193000900063px" version="1.1" width="1392.0px" xmlns="http://www.w3.org/2000/svg" xmlns:ev="http://www.w3.org/2001/xml-events" xmlns:xlink="http://www.w3.org/1999/xlink"><defs /><rect fill="white" height="454.2193000900063" width="1392.0" x="0" y="0" /><g transform="translate(50,99.7193000900063)"><g><path d="M 0 0 L 174.0 0 L 174.0 -8.0 L 215.7193000900063 -49.7193000900063 L 298.2193000900063 -49.7193000900063 L 342.05992052357226 -5.8786796564403545 L 346.0 199.0 L 254.5 199.0 L 254.5 264.5 L 0 264.5 Z" fill="#F5F5DC" stroke="none" /></g><g><line stroke="#000000" stroke-width="3" x1="0" x2="174.0" y1="0" y2="0" /><line stroke="#666666" stroke-width="0.5" x1="0" x2="174.0" y1="-20" y2="-20" /><line stroke="#666666" stroke-width="0.5" x1="0" x2="0" y1="-23" y2="-17" /><line stroke="#666666" stroke-width="0.5" x1="174.0" x2="174.0" y1="-23" y2="-17" /><text fill="#666666" font-family="Arial" font-size="10px" text-anchor="middle" x="87.0" y="-23.0">N1: 87"</text><line stroke="#000000" stroke-width="3" x1="174.0" x2="174.0" y1="0" y2="-8.0" /><text fill="#666666" font-family="Arial" font-size="10px" text-anchor="middle" x="159.0" y="-4.0">4"</text><line stroke="#000000" stroke-width="3" x1="174.0" x2="215.7193000900063" y1="-8.0" y2="-49.7193000900063" /><text fill="#666666" font-family="Arial" font-size="10px" text-anchor="middle" x="184.85965004500315" y="-38.85965004500315">29.5"</text><line stroke="#000000" stroke-width="3" x1="215.7193000900063" x2="298.2193000900063" y1="-49.7193000900063" y2="-49.7193000900063" /><text fill="#666666" font-family="Arial" font-size="10px" text-anchor="middle" x="256.9693000900063" y="-59.7193000900063">41.25"</text><line stroke="#000000" stroke-width="3" x1="298.2193000900063" x2="342.05992052357226" y1="-49.7193000900063" y2="-5.8786796564403545" /><text fill="#666666" font-family="Arial" font-size="10px" text-anchor="middle" x="330.1396103067893" y="-37.79898987322333">31"</text><line stroke="#666666" stroke-width="0.5" x1="174.0" x2="346.0" y1="-30" y2="-30" /><line stroke="#666666" stroke-width="0.5" x1="174.0" x2="174.0" y1="-33" y2="-27" /><line stroke="#666666" stroke-width="0.5" x1="346.0" x2="346.0" y1="-33" y2="-27" /><text fill="#666666" font-family="Arial" font-size="10px" text-anchor="middle" x="260.0" y="-33.0">N2: 86" (alcove)</text><line stroke="#000000" stroke-width="3" x1="346.0" x2="346.0" y1="0" y2="199.0" /><line stroke="#666666" stroke-width="0.5" x1="366.0" x2="366.0" y1="0" y2="199.0" /><line stroke="#666666" stroke-width="0.5" x1="366.0" x2="366.0" y1="-3" y2="3" /><line stroke="#666666" stroke-width="0.5" x1="366.0" x2="366.0" y1="196.0" y2="202.0" /><text fill="#666666" font-family="Arial" font-size="10px" text-anchor="middle" transform="rotate(-90 366.0 99.5)" x="366.0" y="99.5">E3: 99.5"</text><line stroke="#000000" stroke-width="3" x1="346.0" x2="254.5" y1="199.0" y2="199.0" /><line stroke="#666666" stroke-width="0.5" x1="254.5" x2="346.0" y1="179.0" y2="179.0" /><line stroke="#666666" stroke-width="0.5" x1="254.5" x2="254.5" y1="176.0" y2="182.0" /><line stroke="#666666" stroke-width="0.5" x1="346.0" x2="346.0" y1="176.0" y2="182.0" /><text fill="#666666" font-family="Arial" font-size="10px" text-anchor="middle" x="300.25" y="176.0">E2: 46.75"</text><line stroke="#8B4513" stroke-width="2" x1="254.5" x2="254.5" y1="199.0" y2="264.5" /><path d="M 254.5 199.0 A 65.5 65.5 0 0 0 189.0 264.5" fill="none" stroke="#8B4513" stroke-dasharray="2,2" stroke-width="1" /><line stroke="#666666" stroke-width="0.5" x1="274.5" x2="274.5" y1="199.0" y2="264.5" /><line stroke="#666666" stroke-width="0.5" x1="274.5" x2="274.5" y1="196.0" y2="202.0" /><line stroke="#666666" stroke-width="0.5" x1="274.5" x2="274.5" y1="261.5" y2="267.5" /><text fill="#666666" font-family="Arial" font-size="10px" text-anchor="middle" transform="rotate(-90 274.5 231.75)" x="274.5" y="231.75">E1: 32.75"</text><line stroke="#000000" stroke-width="3" x1="0" x2="181.5" y1="264.5" y2="264.5" /><line stroke="#666666" stroke-width="0.5" x1="0" x2="181.5" y1="284.5" y2="284.5" /><line stroke="#666666" stroke-width="0.5" x1="0" x2="0" y1="281.5" y2="287.5" /><line stroke="#666666" stroke-width="0.5" x1="181.5" x2="181.5" y1="281.5" y2="287.5" /><text fill="#666666" font-family="Arial" font-size="10px" text-anchor="middle" x="90.75" y="281.5">S1: 90.75"</text><line stroke="#999999" stroke-dasharray="5,5" stroke-width="1" x1="181.5" x2="245.5" y1="264.5" y2="264.5" /><line stroke="#666666" stroke-width="0.5" x1="181.5" x2="245.5" y1="284.5" y2="284.5" /><line stroke="#666666" stroke-width="0.5" x1="181.5" x2="181.5" y1="281.5" y2="287.5" /><line stroke="#666666" stroke-width="0.5" x1="245.5" x2="245.5" y1="281.5" y2="287.5" /><text fill="#666666" font-family="Arial" font-size="10px" text-anchor="middle" x="213.5" y="281.5">S2: 32" (entryway)</text><line stroke="#000000" stroke-width="3" x1="245.5" x2="254.5" y1="264.5" y2="264.5" /><line stroke="#666666" stroke-width="0.5" x1="245.5" x2="254.5" y1="284.5" y2="284.5" /><line stroke="#666666" stroke-width="0.5" x1="245.5" x2="245.5" y1="281.5" y2="287.5" /><line stroke="#666666" stroke-width="0.5" x1="254.5" x2="254.5" y1="281.5" y2="287.5" /><text fill="#666666" font-family="Arial" font-size="10px" text-anchor="middle" x="250.0" y="281.5">S3: 4.5"</text><line stroke="#000000" stroke-width="3" x1="0" x2="0" y1="0" y2="56.0" /><line stroke="#666666" stroke-width="0.5" x1="-20" x2="-20" y1="0" y2="56.0" /><line stroke="#666666" stroke-width="0.5" x1="-20" x2="-20" y1="-3" y2="3" /><line stroke="#666666" stroke-width="0.5" x1="-20" x2="-20" y1="53.0" y2="59.0" /><text fill="#666666" font-family="Arial" font-size="10px" text-anchor="middle" transform="rotate(-90 -20.0 28.0)" x="-20.0" y="28.0">W1: 28"</text><line stroke="#999999" stroke-dasharray="5,5" stroke-width="1" x1="0" x2="0" y1="56.0" y2="119.0" /><line stroke="#666666" stroke-width="0.5" x1="-20" x2="-20" y1="56.0" y2="119.0" /><line stroke="#666666" stroke-width="0.5" x1="-20" x2="-20" y1="53.0" y2="59.0" /><line stroke="#666666" stroke-width="0.5" x1="-20" x2="-20" y1="116.0" y2="122.0" /><text fill="#666666" font-family="Arial" font-size="10px" text-anchor="middle" transform="rotate(-90 -20.0 87.5)" x="-20.0" y="87.5">W2: 31.5" (entryway)</text><line stroke="#000000" stroke-width="3" x1="0" x2="0" y1="119.0" y2="264.5" /><line stroke="#666666" stroke-width="0.5" x1="-20" x2="-20" y1="119.0" y2="264.5" /><line stroke="#666666" stroke-width="0.5" x1="-20" x2="-20" y1="116.0" y2="122.0" /><line stroke="#666666" stroke-width="0.5" x1="-20" x2="-20" y1="261.5" y2="267.5" /><text fill="#666666" font-family="Arial" font-size="10px" text-anchor="middle" transform="rotate(-90 -20.0 191.75)" x="-20.0" y="191.75">W3: 72.75"</text></g><text fill="#333333" font-family="Arial" font-size="18px" font-weight="bold" text-anchor="middle" x="173.0" y="-69.7193000900063">Wall Cabinets</text><g><line stroke="#333333" stroke-width="2" x1="296.0" x2="296.0" y1="50" y2="20" /><polygon fill="#333333" points="296.0,20 291.0,30 301.0,30" /><text fill="#333333" font-family="Arial" font-size="14px" font-weight="bold" text-anchor="middle" x="296.0" y="15">N</text></g><rect fill="#CD853F" height="48.0" opacity="0.8" stroke="#000" stroke-width="1" width="42.0" x="0.0" y="0.0" /><text fill="#000" font-size="8px" font-weight="bold" text-anchor="middle" x="21.0" y="21.0">N1-1: 21"W</text><text fill="#000" font-size="8px" text-anchor="middle" x="21.0" y="30.0">42"H</text><rect fill="#CD853F" height="48.0" opacity="0.8" stroke="#000" stroke-width="1" width="56.0" x="42.0" y="0.0" /><text fill="#000" font-size="8px" font-weight="bold" text-anchor="middle" x="70.0" y="21.0">N1-2: 28"W</text><text fill="#000" font-size="8px" text-anchor="middle" x="70.0" y="30.0">42"H</text><rect fill="#CD853F" height="48.0" opacity="0.8" stroke="#000" stroke-width="1" width="48.0" x="98.0" y="0.0" /><text fill="#000" font-size="8px" font-weight="bold" text-anchor="middle" x="122.0" y="21.0">N1-3: 24"W</text><text fill="#000" font-size="8px" text-anchor="middle" x="122.0" y="30.0">42"H</text><rect fill="#CD853F" height="48.0" opacity="0.8" stroke="#000" stroke-width="1" width="18.0" x="146.0" y="0.0" /><text fill="#000" font-size="8px" font-weight="bold" text-anchor="middle" x="155.0" y="21.0">N1-4: 9"W</text><text fill="#000" font-size="8px" text-anchor="middle" x="155.0" y="30.0">42"H</text><rect fill="#CD853F" height="72.0" opacity="0.8" stroke="#000" stroke-width="1" width="48.0" x="298.0" y="0.0" /><text fill="#000" font-size="8px" font-weight="bold" text-anchor="middle" x="322.0" y="33.0">E3-1</text><text fill="#000" font-size="8px" text-anchor="middle" x="322.0" y="42.0">42"H</text><rect fill="#A0522D" height="48.0" opacity="0.8" stroke="#000" stroke-width="1" width="48.0" x="0.0" y="216.5" /><text fill="#FFF" font-size="10px" font-weight="bold" text-anchor="middle" x="24.0" y="240.5">LS</text><rect fill="#CD853F" height="48.0" opacity="0.8" stroke="#000" stroke-width="1" width="24.0" x="48.0" y="216.5" /><text fill="#000" font-size="8px" font-weight="bold" text-anchor="middle" x="60.0" y="237.5">S1-2: 12"W</text><text fill="#000" font-size="8px" text-anchor="middle" x="60.0" y="246.5">42"H</text><rect fill="#CD853F" height="48.0" opacity="0.8" stroke="#000" stroke-width="1" width="48.0" x="72.0" y="216.5" /><text fill="#000" font-size="8px" font-weight="bold" text-anchor="middle" x="96.0" y="237.5">S1-3: 24"W</text><text fill="#000" font-size="8px" text-anchor="middle" x="96.0" y="246.5">42"H</text><rect fill="#CD853F" height="48.0" opacity="0.8" stroke="#000" stroke-width="1" width="24.0" x="0.0" y="119.0" /><text fill="#000" font-size="8px" font-weight="bold" text-anchor="middle" x="12.0" y="140.0">W3-1</text><text fill="#000" font-size="8px" text-anchor="middle" x="12.0" y="149.0">42"H</text><rect fill="#A0522D" height="48.0" opacity="0.8" stroke="#000" stroke-width="1" width="48.0" x="0.0" y="216.5" /><text fill="#FFF" font-size="10px" font-weight="bold" text-anchor="middle" x="24.0" y="240.5">LS</text><text fill="#666666" font-family="Arial" font-size="10px" x="5" y="304.5">Scale: 2.0 px/in</text></g><g transform="translate(526.0,99.7193000900063)"><g><path d="M 0 0 L 174.0 0 L 174.0 -8.0 L 215.7193000900063 -49.7193000900063 L 298.2193000900063 -49.7193000900063 L 342.05992052357226 -5.8786796564403545 L 346.0 199.0 L 254.5 199.0 L 254.5 264.5 L 0 264.5 Z" fill="#F5F5DC" stroke="none" /></g><g><line stroke="#000000" stroke-width="3" x1="0" x2="174.0" y1="0" y2="0" /><line stroke="#666666" stroke-width="0.5" x1="0" x2="174.0" y1="-20" y2="-20" /><line stroke="#666666" stroke-width="0.5" x1="0" x2="0" y1="-23" y2="-17" /><line stroke="#666666" stroke-width="0.5" x1="174.0" x2="174.0" y1="-23" y2="-17" /><text fill="#666666" font-family="Arial" font-size="10px" text-anchor="middle" x="87.0" y="-23.0">N1: 87"</text><line stroke="#000000" stroke-width="3" x1="174.0" x2="174.0" y1="0" y2="-8.0" /><text fill="#666666" font-family="Arial" font-size="10px" text-anchor="middle" x="159.0" y="-4.0">4"</text><line stroke="#000000" stroke-width="3" x1="174.0" x2="215.7193000900063" y1="-8.0" y2="-49.7193000900063" /><text fill="#666666" font-family="Arial" font-size="10px" text-anchor="middle" x="184.85965004500315" y="-38.85965004500315">29.5"</text><line stroke="#000000" stroke-width="3" x1="215.7193000900063" x2="298.2193000900063" y1="-49.7193000900063" y2="-49.7193000900063" /><text fill="#666666" font-family="Arial" font-size="10px" text-anchor="middle" x="256.9693000900063" y="-59.7193000900063">41.25"</text><line stroke="#000000" stroke-width="3" x1="298.2193000900063" x2="342.05992052357226" y1="-49.7193000900063" y2="-5.8786796564403545" /><text fill="#666666" font-family="Arial" font-size="10px" text-anchor="middle" x="330.1396103067893" y="-37.79898987322333">31"</text><line stroke="#666666" stroke-width="0.5" x1="174.0" x2="346.0" y1="-30" y2="-30" /><line stroke="#666666" stroke-width="0.5" x1="174.0" x2="174.0" y1="-33" y2="-27" /><line stroke="#666666" stroke-width="0.5" x1="346.0" x2="346.0" y1="-33" y2="-27" /><text fill="#666666" font-family="Arial" font-size="10px" text-anchor="middle" x="260.0" y="-33.0">N2: 86" (alcove)</text><line stroke="#000000" stroke-width="3" x1="346.0" x2="346.0" y1="0" y2="199.0" /><line stroke="#666666" stroke-width="0.5" x1="366.0" x2="366.0" y1="0" y2="199.0" /><line stroke="#666666" stroke-width="0.5" x1="366.0" x2="366.0" y1="-3" y2="3" /><line stroke="#666666" stroke-width="0.5" x1="366.0" x2="366.0" y1="196.0" y2="202.0" /><text fill="#666666" font-family="Arial" font-size="10px" text-anchor="middle" transform="rotate(-90 366.0 99.5)" x="366.0" y="99.5">E3: 99.5"</text><line stroke="#000000" stroke-width="3" x1="346.0" x2="254.5" y1="199.0" y2="199.0" /><line stroke="#666666" stroke-width="0.5" x1="254.5" x2="346.0" y1="179.0" y2="179.0" /><line stroke="#666666" stroke-width="0.5" x1="254.5" x2="254.5" y1="176.0" y2="182.0" /><line stroke="#666666" stroke-width="0.5" x1="346.0" x2="346.0" y1="176.0" y2="182.0" /><text fill="#666666" font-family="Arial" font-size="10px" text-anchor="middle" x="300.25" y="176.0">E2: 46.75"</text><line stroke="#8B4513" stroke-width="2" x1="254.5" x2="254.5" y1="199.0" y2="264.5" /><path d="M 254.5 199.0 A 65.5 65.5 0 0 0 189.0 264.5" fill="none" stroke="#8B4513" stroke-dasharray="2,2" stroke-width="1" /><line stroke="#666666" stroke-width="0.5" x1="274.5" x2="274.5" y1="199.0" y2="264.5" /><line stroke="#666666" stroke-width="0.5" x1="274.5" x2="274.5" y1="196.0" y2="202.0" /><line stroke="#666666" stroke-width="0.5" x1="274.5" x2="274.5" y1="261.5" y2="267.5" /><text fill="#666666" font-family="Arial" font-size="10px" text-anchor="middle" transform="rotate(-90 274.5 231.75)" x="274.5" y="231.75">E1: 32.75"</text><line stroke="#000000" stroke-width="3" x1="0" x2="181.5" y1="264.5" y2="264.5" /><line stroke="#666666" stroke-width="0.5" x1="0" x2="181.5" y1="284.5" y2="284.5" /><line stroke="#666666" stroke-width="0.5" x1="0" x2="0" y1="281.5" y2="287.5" /><line stroke="#666666" stroke-width="0.5" x1="181.5" x2="181.5" y1="281.5" y2="287.5" /><text fill="#666666" font-family="Arial" font-size="10px" text-anchor="middle" x="90.75" y="281.5">S1: 90.75"</text><line stroke="#999999" stroke-dasharray="5,5" stroke-width="1" x1="181.5" x2="245.5" y1="264.5" y2="264.5" /><line stroke="#666666" stroke-width="0.5" x1="181.5" x2="245.5" y1="284.5" y2="284.5" /><line stroke="#666666" stroke-width="0.5" x1="181.5" x2="181.5" y1="281.5" y2="287.5" /><line stroke="#666666" stroke-width="0.5" x1="245.5" x2="245.5" y1="281.5" y2="287.5" /><text fill="#666666" font-family="Arial" font-size="10px" text-anchor="middle" x="213.5" y="281.5">S2: 32" (entryway)</text><line stroke="#000000" stroke-width="3" x1="245.5" x2="254.5" y1="264.5" y2="264.5" /><line stroke="#666666" stroke-width="0.5" x1="245.5" x2="254.5" y1="284.5" y2="284.5" /><line stroke="#666666" stroke-width="0.5" x1="245.5" x2="245.5" y1="281.5" y2="287.5" /><line stroke="#666666" stroke-width="0.5" x1="254.5" x2="254.5" y1="281.5" y2="287.5" /><text fill="#666666" font-family="Arial" font-size="10px" text-anchor="middle" x="250.0" y="281.5">S3: 4.5"</text><line stroke="#000000" stroke-width="3" x1="0" x2="0" y1="0" y2="56.0" /><line stroke="#666666" stroke-width="0.5" x1="-20" x2="-20" y1="0" y2="56.0" /><line stroke="#666666" stroke-width="0.5" x1="-20" x2="-20" y1="-3" y2="3" /><line stroke="#666666" stroke-width="0.5" x1="-20" x2="-20" y1="53.0" y2="59.0" /><text fill="#666666" font-family="Arial" font-size="10px" text-anchor="middle" transform="rotate(-90 -20.0 28.0)" x="-20.0" y="28.0">W1: 28"</text><line stroke="#999999" stroke-dasharray="5,5" stroke-width="1" x1="0" x2="0" y1="56.0" y2="119.0" /><line stroke="#666666" stroke-width="0.5" x1="-20" x2="-20" y1="56.0" y2="119.0" /><line stroke="#666666" stroke-width="0.5" x1="-20" x2="-20" y1="53.0" y2="59.0" /><line stroke="#666666" stroke-width="0.5" x1="-20" x2="-20" y1="116.0" y2="122.0" /><text fill="#666666" font-family="Arial" font-size="10px" text-anchor="middle" transform="rotate(-90 -20.0 87.5)" x="-20.0" y="87.5">W2: 31.5" (entryway)</text><line stroke="#000000" stroke-width="3" x1="0" x2="0" y1="119.0" y2="264.5" /><line stroke="#666666" stroke-width="0.5" x1="-20" x2="-20" y1="119.0" y2="264.5" /><line stroke="#666666" stroke-width="0.5" x1="-20" x2="-20" y1="116.0" y2="122.0" /><line stroke="#666666" stroke-width="0.5" x1="-20" x2="-20" y1="261.5" y2="267.5" /><text fill="#666666" font-family="Arial" font-size="10px" text-anchor="middle" transform="rotate(-90 -20.0 191.75)" x="-20.0" y="191.75">W3: 72.75"</text></g><text fill="#333333" font-family="Arial" font-size="18px" font-weight="bold" text-anchor="middle" x="173.0" y="-69.7193000900063">Base Cabinets</text><g><line stroke="#333333" stroke-width="2" x1="296.0" x2="296.0" y1="50" y2="20" /><polygon fill="#333333" points="296.0,20 291.0,30 301.0,30" /><text fill="#333333" font-family="Arial" font-size="14px" font-weight="bold" text-anchor="middle" x="296.0" y="15">N</text></g><rect fill="#C0C0C0" height="72.0" stroke="#000" stroke-width="1" width="72.0" x="274.0" y="95.0" /><text fill="#000" font-size="10px" text-anchor="middle" x="310.0" y="131.0">FRIDGE</text><rect fill="#87CEEB" height="48.0" stroke="#000" stroke-width="1" width="66.0" x="44.5" y="0.0" /><ellipse cx="77.5" cy="24.0" fill="#4682B4" rx="26.400000000000002" ry="14.399999999999999" stroke="#000" stroke-width="1" /><rect fill="#708090" height="48.0" stroke="#000" stroke-width="1" width="48.0" x="110.5" y="0.0" /><text fill="#FFF" font-size="10px" text-anchor="middle" x="134.5" y="24.0">DW</text><rect fill="#D2691E" height="48.0" opacity="0.7" stroke="#000" stroke-width="1" width="44.0" x="0.0" y="0.0" /><text fill="#000" font-size="9px" font-weight="bold" text-anchor="middle" x="22.0" y="19.0">N1-1</text><text fill="#000" font-size="8px" text-anchor="middle" x="22.0" y="29.0">22"W</text><rect fill="#D2691E" height="48.0" opacity="0.7" stroke="#000" stroke-width="1" width="16.0" x="158.5" y="0.0" /><text fill="#000" font-size="9px" font-weight="bold" text-anchor="middle" x="166.5" y="19.0">N1-2</text><text fill="#000" font-size="8px" text-anchor="middle" x="166.5" y="29.0">8"W</text><rect fill="#D2691E" height="32.0" opacity="0.7" stroke="#000" stroke-width="1" width="48.0" x="298.0" y="0.0" /><text fill="#000" font-size="9px" font-weight="bold" text-anchor="middle" x="322.0" y="11.0">E3-1</text><text fill="#000" font-size="8px" text-anchor="middle" x="322.0" y="21.0">16"W</text><rect fill="#D2691E" height="32.0" opacity="0.7" stroke="#000" stroke-width="1" width="48.0" x="298.0" y="167.0" /><text fill="#000" font-size="9px" font-weight="bold" text-anchor="middle" x="322.0" y="178.0">E3-3</text><text fill="#000" font-size="8px" text-anchor="middle" x="322.0" y="188.0">16"W</text><rect fill="#A0522D" height="48.0" opacity="0.7" stroke="#000" stroke-width="1" width="72.0" x="0.0" y="216.5" /><text fill="#FFF" font-size="10px" font-weight="bold" text-anchor="middle" x="36.0" y="240.5">LS</text><rect fill="#D2691E" height="48.0" opacity="0.7" stroke="#000" stroke-width="1" width="48.0" x="72.0" y="216.5" /><text fill="#000" font-size="9px" font-weight="bold" text-anchor="middle" x="96.0" y="235.5">S1-2</text><text fill="#000" font-size="8px" text-anchor="middle" x="96.0" y="245.5">24"W</text><rect fill="#D2691E" height="48.0" opacity="0.7" stroke="#000" stroke-width="1" width="48.0" x="0.0" y="119.0" /><text fill="#000" font-size="9px" font-weight="bold" text-anchor="middle" x="24.0" y="138.0">W3-1</text><text fill="#000" font-size="8px" text-anchor="middle" x="24.0" y="148.0">24"W</text><text fill="#666666" font-family="Arial" font-size="10px" x="5" y="304.5">Scale: 2.0 px/in</text></g><g><text fill="#333333" font-family="Arial" font-size="14px" font-weight="bold" x="1012.0" y="89.7193000900063">Legend</text><rect fill="#f9f9f9" height="180" stroke="#cccccc" stroke-width="1" width="145" x="1007.0" y="99.7193000900063" /><line stroke="#000000" stroke-width="3" x1="1017.0" x2="1047.0" y1="119.7193000900063" y2="119.7193000900063" /><text fill="#333333" font-family="Arial" font-size="11px" x="1057.0" y="124.7193000900063">Wall</text><line stroke="#8B4513" stroke-width="2" x1="1017.0" x2="1047.0" y1="149.7193000900063" y2="149.7193000900063" /><path d="M 1017.0 149.7193000900063 A 15 15 0 0 1 1032.0 134.7193000900063" fill="none" stroke="#8B4513" stroke-dasharray="2,2" stroke-width="1" /><text fill="#333333" font-family="Arial" font-size="11px" x="1057.0" y="154.7193000900063">Door</text><line stroke="#4169E1" stroke-width="2" x1="1017.0" x2="1047.0" y1="179.7193000900063" y2="179.7193000900063" /><rect fill="#4169E1" height="4" opacity="0.3" width="30" x="1017.0" y="177.7193000900063" /><text fill="#333333" font-family="Arial" font-size="11px" x="1057.0" y="184.7193000900063">Window</text><line stroke="#666666" stroke-width="0.5" x1="1017.0" x2="1047.0" y1="209.7193000900063" y2="209.7193000900063" /><line stroke="#666666" stroke-width="0.5" x1="1017.0" x2="1017.0" y1="206.7193000900063" y2="212.7193000900063" /><line stroke="#666666" stroke-width="0.5" x1="1047.0" x2="1047.0" y1="206.7193000900063" y2="212.7193000900063" /><text fill="#333333" font-family="Arial" font-size="11px" x="1057.0" y="214.7193000900063">Dimension</text><rect fill="#F5F5DC" height="16" stroke="none" width="30" x="1017.0" y="231.7193000900063" /><text fill="#333333" font-family="Arial" font-size="11px" x="1057.0" y="244.7193000900063">Floor</text><text fill="#333333" font-family="Arial" font-size="10px" font-weight="bold" x="1017.0" y="274.7193000900063">Alcove:</text><text fill="#333333" font-family="Arial" font-size="9px" x="1022.0" y="289.7193000900063">N2 (north)</text><text fill="#333333" font-family="Arial" font-size="9px" x="1022.0" y="301.7193000900063">E1-E2 (SE)</text></g><g><text fill="#333333" font-family="Arial" font-size="14px" font-weight="bold" x="1192.0" y="89.7193000900063">Shopping List</text><rect fill="#f9f9f9" height="180" stroke="#cccccc" stroke-width="1" width="195" x="1187.0" y="99.7193000900063" /><text fill="#999999" font-family="Arial" font-size="10px" font-style="italic" x="1197.0" y="119.7193000900063">No items yet.</text><text fill="#999999" font-family="Arial" font-size="10px" font-style="italic" x="1197.0" y="139.7193000900063">Add cabinets to</text><text fill="#999999" font-family="Arial" font-size="10px" font-style="italic" x="1197.0" y="154.7193000900063">generate list.</text></g></svg>