<?xml version="1.0" encoding="utf-8" ?>
<svg baseProfile="full" height="611.3289501350094px" version="1.1" width="1738.0px" xmlns="http://www.w3.org/2000/svg" xmlns:ev="http://www.w3.org/2001/xml-events" xmlns:xlink="http://www.w3.org/1999/xlink"><defs /><rect fill="white" height="611.3289501350094" width="1738.0" x="0" y="0" /><g transform="translate(50,124.57895013500945)"><g><path d="M 0 0 L 261.0 0 L 261.0 -12.0 L 323.57895013500945 -74.57895013500945 L 447.32895013500945 -74.57895013500945 L 513.0898807853583 -8.818019484660539 L 519.0 298.5 L 381.75 298.5 L 381.75 396.75 L 0 396.75 Z" fill="#F5F5DC" stroke="none" /></g><g><line stroke="#000000" stroke-width="3" x1="0" x2="69.75" y1="0" y2="0" /><line stroke="#4169E1" stroke-width="2" x1="69.75" x2="162.75" y1="0" y2="0" /><rect fill="#4169E1" height="4" opacity="0.3" width="93.0" x="69.75" y="-2" /><line stroke="#000000" stroke-width="3" x1="162.75" x2="261.0" y1="0" y2="0" /><line stroke="#666666" stroke-width="0.5" x1="0" x2="261.0" y1="-20" y2="-20" /><line stroke="#666666" stroke-width="0.5" x1="0" x2="0" y1="-23" y2="-17" /><line stroke="#666666" stroke-width="0.5" x1="261.0" x2="261.0" y1="-23" y2="-17" /><text fill="#666666" font-family="Arial" font-size="10px" text-anchor="middle" x="130.5" y="-23.0">N1: 87"</text><line stroke="#000000" stroke-width="3" x1="261.0" x2="261.0" y1="0" y2="-12.0" /><text fill="#666666" font-family="Arial" font-size="10px" text-anchor="middle" x="246.0" y="-6.0">4"</text><line stroke="#000000" stroke-width="3" x1="261.0" x2="323.57895013500945" y1="-12.0" y2="-74.57895013500945" /><text fill="#666666" font-family="Arial" font-size="10px" text-anchor="middle" x="282.2894750675047" y="-53.289475067504725">29.5"</text><line stroke="#000000" stroke-width="3" x1="323.57895013500945" x2="447.32895013500945" y1="-74.57895013500945" y2="-74.57895013500945" /><text fill="#666666" font-family="Arial" font-size="10px" text-anchor="middle" x="385.45395013500945" y="-84.57895013500945">41.25"</text><line stroke="#000000" stroke-width="3" x1="447.32895013500945" x2="513.0898807853583" y1="-74.57895013500945" y2="-8.818019484660539" /><text fill="#666666" font-family="Arial" font-size="10px" text-anchor="middle" x="490.2094154601839" y="-51.698484809834994">31"</text><line stroke="#666666" stroke-width="0.5" x1="261.0" x2="519.0" y1="-30" y2="-30" /><line stroke="#666666" stroke-width="0.5" x1="261.0" x2="261.0" y1="-33" y2="-27" /><line stroke="#666666" stroke-width="0.5" x1="519.0" x2="519.0" y1="-33" y2="-27" /><text fill="#666666" font-family="Arial" font-size="10px" text-anchor="middle" x="390.0" y="-33.0">N2: 86" (alcove)</text><line stroke="#000000" stroke-width="3" x1="519.0" x2="519.0" y1="0" y2="298.5" /><line stroke="#666666" stroke-width="0.5" x1="539.0" x2="539.0" y1="0" y2="298.5" /><line stroke="#666666" stroke-width="0.5" x1="539.0" x2="539.0" y1="-3" y2="3" /><line stroke="#666666" stroke-width="0.5" x1="539.0" x2="539.0" y1="295.5" y2="301.5" /><text fill="#666666" font-family="Arial" font-size="10px" text-anchor="middle" transform="rotate(-90 539.0 149.25)" x="539.0" y="149.25">E3: 99.5"</text><line stroke="#000000" stroke-width="3" x1="519.0" x2="381.75" y1="298.5" y2="298.5" /><line stroke="#666666" stroke-width="0.5" x1="381.75" x2="519.0" y1="278.5" y2="278.5" /><line stroke="#666666" stroke-width="0.5" x1="381.75" x2="381.75" y1="275.5" y2="281.5" /><line stroke="#666666" stroke-width="0.5" x1="519.0" x2="519.0" y1="275.5" y2="281.5" /><text fill="#666666" font-family="Arial" font-size="10px" text-anchor="middle" x="450.375" y="275.5">E2: 46.75"</text><line stroke="#8B4513" stroke-width="2" x1="381.75" x2="381.75" y1="298.5" y2="396.75" /><path d="M 381.75 298.5 A 98.25 98.25 0 0 0 283.5 396.75" fill="none" stroke="#8B4513" stroke-dasharray="2,2" stroke-width="1" /><line stroke="#666666" stroke-width="0.5" x1="401.75" x2="401.75" y1="298.5" y2="396.75" /><line stroke="#666666" stroke-width="0.5" x1="401.75" x2="401.75" y1="295.5" y2="301.5" /><line stroke="#666666" stroke-width="0.5" x1="401.75" x2="401.75" y1="393.75" y2="399.75" /><text fill="#666666" font-family="Arial" font-size="10px" text-anchor="middle" transform="rotate(-90 401.75 347.625)" x="401.75" y="347.625">E1: 32.75"</text><line stroke="#000000" stroke-width="3" x1="0" x2="272.25" y1="396.75" y2="396.75" /><line stroke="#666666" stroke-width="0.5" x1="0" x2="272.25" y1="416.75" y2="416.75" /><line stroke="#666666" stroke-width="0.5" x1="0" x2="0" y1="413.75" y2="419.75" /><line stroke="#666666" stroke-width="0.5" x1="272.25" x2="272.25" y1="413.75" y2="419.75" /><text fill="#666666" font-family="Arial" font-size="10px" text-anchor="middle" x="136.125" y="413.75">S1: 90.75"</text><line stroke="#999999" stroke-dasharray="5,5" stroke-width="1" x1="272.25" x2="368.25" y1="396.75" y2="396.75" /><line stroke="#666666" stroke-width="0.5" x1="272.25" x2="368.25" y1="416.75" y2="416.75" /><line stroke="#666666" stroke-width="0.5" x1="272.25" x2="272.25" y1="413.75" y2="419.75" /><line stroke="#666666" stroke-width="0.5" x1="368.25" x2="368.25" y1="413.75" y2="419.75" /><text fill="#666666" font-family="Arial" font-size="10px" text-anchor="middle" x="320.25" y="413.75">S2: 32" (entryway)</text><line stroke="#000000" stroke-width="3" x1="368.25" x2="381.75" y1="396.75" y2="396.75" /><line stroke="#666666" stroke-width="0.5" x1="368.25" x2="381.75" y1="416.75" y2="416.75" /><line stroke="#666666" stroke-width="0.5" x1="368.25" x2="368.25" y1="413.75" y2="419.75" /><line stroke="#666666" stroke-width="0.5" x1="381.75" x2="381.75" y1="413.75" y2="419.75" /><text fill="#666666" font-family="Arial" font-size="10px" text-anchor="middle" x="375.0" y="413.75">S3: 4.5"</text><line stroke="#000000" stroke-width="3" x1="0" x2="0" y1="0" y2="84.0" /><line stroke="#666666" stroke-width="0.5" x1="-20" x2="-20" y1="0" y2="84.0" /><line stroke="#666666" stroke-width="0.5" x1="-20" x2="-20" y1="-3" y2="3" /><line stroke="#666666" stroke-width="0.5" x1="-20" x2="-20" y1="81.0" y2="87.0" /><text fill="#666666" font-family="Arial" font-size="10px" text-anchor="middle" transform="rotate(-90 -20.0 42.0)" x="-20.0" y="42.0">W1: 28"</text><line stroke="#999999" stroke-dasharray="5,5" stroke-width="1" x1="0" x2="0" y1="84.0" y2="178.5" /><line stroke="#666666" stroke-width="0.5" x1="-20" x2="-20" y1="84.0" y2="178.5" /><line stroke="#666666" stroke-width="0.5" x1="-20" x2="-20" y1="81.0" y2="87.0" /><line stroke="#666666" stroke-width="0.5" x1="-20" x2="-20" y1="175.5" y2="181.5" /><text fill="#666666" font-family="Arial" font-size="10px" text-anchor="middle" transform="rotate(-90 -20.0 131.25)" x="-20.0" y="131.25">W2: 31.5" (entryway)</text><line stroke="#000000" stroke-width="3" x1="0" x2="0" y1="178.5" y2="396.75" /><line stroke="#666666" stroke-width="0.5" x1="-20" x2="-20" y1="178.5" y2="396.75" /><line stroke="#666666" stroke-width="0.5" x1="-20" x2="-20" y1="175.5" y2="181.5" /><line stroke="#666666" stroke-width="0.5" x1="-20" x2="-20" y1="393.75" y2="399.75" /><text fill="#666666" font-family="Arial" font-size="10px" text-anchor="middle" transform="rotate(-90 -20.0 287.625)" x="-20.0" y="287.625">W3: 72.75"</text></g><text fill="#333333" font-family="Arial" font-size="18px" font-weight="bold" text-anchor="middle" x="259.5" y="-94.57895013500945">Wall Cabinets</text><g><line stroke="#333333" stroke-width="2" x1="469.0" x2="469.0" y1="50" y2="20" /><polygon fill="#333333" points="469.0,20 464.0,30 474.0,30" /><text fill="#333333" font-family="Arial" font-size="14px" font-weight="bold" text-anchor="middle" x="469.0" y="15">N</text></g><rect fill="#CD853F" height="36.0" opacity="0.8" stroke="#000" stroke-width="1" width="63.0" x="0.0" y="0" /><text fill="#000" font-size="8px" font-weight="bold" text-anchor="middle" x="31.5" y="15.0">N1-1: 21"W</text><text fill="#000" font-size="8px" text-anchor="middle" x="31.5" y="24.0">42"H</text><rect fill="#CD853F" height="36.0" opacity="0.8" stroke="#000" stroke-width="1" width="72.0" x="165.75" y="0" /><text fill="#000" font-size="8px" font-weight="bold" text-anchor="middle" x="201.75" y="15.0">N1-2: 24"W</text><text fill="#000" font-size="8px" text-anchor="middle" x="201.75" y="24.0">42"H</text><rect fill="#CD853F" height="36.0" opacity="0.8" stroke="#000" stroke-width="1" width="27.0" x="234.0" y="0" /><text fill="#000" font-size="8px" font-weight="bold" text-anchor="middle" x="247.5" y="15.0">N1-3: 9"W</text><text fill="#000" font-size="8px" text-anchor="middle" x="247.5" y="24.0">42"H</text><rect fill="#CD853F" height="108.0" opacity="0.8" stroke="#000" stroke-width="1" width="36.0" x="483.0" y="142.5" /><text fill="#000" font-size="8px" font-weight="bold" text-anchor="middle" x="501.0" y="191.5">E3-1</text><text fill="#000" font-size="7px" text-anchor="middle" x="501.0" y="199.5">36"W</text><text fill="#000" font-size="7px" text-anchor="middle" x="501.0" y="206.5">42"H</text><rect fill="#CD853F" height="36.0" opacity="0.8" stroke="#000" stroke-width="1" width="36.0" x="72.0" y="360.75" /><text fill="#000" font-size="8px" font-weight="bold" text-anchor="middle" x="90.0" y="375.75">S1-1: 12"W</text><text fill="#000" font-size="8px" text-anchor="middle" x="90.0" y="384.75">42"H</text><rect fill="#CD853F" height="36.0" opacity="0.8" stroke="#000" stroke-width="1" width="72.0" x="108.0" y="360.75" /><text fill="#000" font-size="8px" font-weight="bold" text-anchor="middle" x="144.0" y="375.75">S1-2: 24"W</text><text fill="#000" font-size="8px" text-anchor="middle" x="144.0" y="384.75">42"H</text><rect fill="#CD853F" height="54.0" opacity="0.8" stroke="#000" stroke-width="1" width="36.0" x="0" y="178.5" /><text fill="#000" font-size="8px" font-weight="bold" text-anchor="middle" x="18.0" y="200.5">W3-1</text><text fill="#000" font-size="7px" text-anchor="middle" x="18.0" y="208.5">18"W</text><text fill="#000" font-size="7px" text-anchor="middle" x="18.0" y="215.5">42"H</text><rect fill="#CD853F" height="54.0" opacity="0.8" stroke="#000" stroke-width="1" width="36.0" x="0" y="232.5" /><text fill="#000" font-size="8px" font-weight="bold" text-anchor="middle" x="18.0" y="254.5">W3-2</text><text fill="#000" font-size="7px" text-anchor="middle" x="18.0" y="262.5">18"W</text><text fill="#000" font-size="7px" text-anchor="middle" x="18.0" y="269.5">42"H</text><rect fill="#CD853F" height="36.0" opacity="0.8" stroke="#000" stroke-width="1" width="36.0" x="0" y="286.5" /><text fill="#000" font-size="8px" font-weight="bold" text-anchor="middle" x="18.0" y="299.5">W3-3</text><text fill="#000" font-size="7px" text-anchor="middle" x="18.0" y="307.5">12"W</text><text fill="#000" font-size="7px" text-anchor="middle" x="18.0" y="314.5">42"H</text><rect fill="#A0522D" height="72.0" opacity="0.8" stroke="#000" stroke-width="1" width="72.0" x="0" y="324.75" /><text fill="#FFF" font-size="10px" font-weight="bold" text-anchor="middle" x="36.0" y="360.75">LS</text><text fill="#666666" font-family="Arial" font-size="10px" x="5" y="436.75">Scale: 3.0 px/in</text></g><g transform="translate(699.0,124.57895013500945)"><g><path d="M 0 0 L 261.0 0 L 261.0 -12.0 L 323.57895013500945 -74.57895013500945 L 447.32895013500945 -74.57895013500945 L 513.0898807853583 -8.818019484660539 L 519.0 298.5 L 381.75 298.5 L 381.75 396.75 L 0 396.75 Z" fill="#F5F5DC" stroke="none" /></g><g><line stroke="#000000" stroke-width="3" x1="0" x2="69.75" y1="0" y2="0" /><line stroke="#4169E1" stroke-width="2" x1="69.75" x2="162.75" y1="0" y2="0" /><rect fill="#4169E1" height="4" opacity="0.3" width="93.0" x="69.75" y="-2" /><line stroke="#000000" stroke-width="3" x1="162.75" x2="261.0" y1="0" y2="0" /><line stroke="#666666" stroke-width="0.5" x1="0" x2="261.0" y1="-20" y2="-20" /><line stroke="#666666" stroke-width="0.5" x1="0" x2="0" y1="-23" y2="-17" /><line stroke="#666666" stroke-width="0.5" x1="261.0" x2="261.0" y1="-23" y2="-17" /><text fill="#666666" font-family="Arial" font-size="10px" text-anchor="middle" x="130.5" y="-23.0">N1: 87"</text><line stroke="#000000" stroke-width="3" x1="261.0" x2="261.0" y1="0" y2="-12.0" /><text fill="#666666" font-family="Arial" font-size="10px" text-anchor="middle" x="246.0" y="-6.0">4"</text><line stroke="#000000" stroke-width="3" x1="261.0" x2="323.57895013500945" y1="-12.0" y2="-74.57895013500945" /><text fill="#666666" font-family="Arial" font-size="10px" text-anchor="middle" x="282.2894750675047" y="-53.289475067504725">29.5"</text><line stroke="#000000" stroke-width="3" x1="323.57895013500945" x2="447.32895013500945" y1="-74.57895013500945" y2="-74.57895013500945" /><text fill="#666666" font-family="Arial" font-size="10px" text-anchor="middle" x="385.45395013500945" y="-84.57895013500945">41.25"</text><line stroke="#000000" stroke-width="3" x1="447.32895013500945" x2="513.0898807853583" y1="-74.57895013500945" y2="-8.818019484660539" /><text fill="#666666" font-family="Arial" font-size="10px" text-anchor="middle" x="490.2094154601839" y="-51.698484809834994">31"</text><line stroke="#666666" stroke-width="0.5" x1="261.0" x2="519.0" y1="-30" y2="-30" /><line stroke="#666666" stroke-width="0.5" x1="261.0" x2="261.0" y1="-33" y2="-27" /><line stroke="#666666" stroke-width="0.5" x1="519.0" x2="519.0" y1="-33" y2="-27" /><text fill="#666666" font-family="Arial" font-size="10px" text-anchor="middle" x="390.0" y="-33.0">N2: 86" (alcove)</text><line stroke="#000000" stroke-width="3" x1="519.0" x2="519.0" y1="0" y2="298.5" /><line stroke="#666666" stroke-width="0.5" x1="539.0" x2="539.0" y1="0" y2="298.5" /><line stroke="#666666" stroke-width="0.5" x1="539.0" x2="539.0" y1="-3" y2="3" /><line stroke="#666666" stroke-width="0.5" x1="539.0" x2="539.0" y1="295.5" y2="301.5" /><text fill="#666666" font-family="Arial" font-size="10px" text-anchor="middle" transform="rotate(-90 539.0 149.25)" x="539.0" y="149.25">E3: 99.5"</text><line stroke="#000000" stroke-width="3" x1="519.0" x2="381.75" y1="298.5" y2="298.5" /><line stroke="#666666" stroke-width="0.5" x1="381.75" x2="519.0" y1="278.5" y2="278.5" /><line stroke="#666666" stroke-width="0.5" x1="381.75" x2="381.75" y1="275.5" y2="281.5" /><line stroke="#666666" stroke-width="0.5" x1="519.0" x2="519.0" y1="275.5" y2="281.5" /><text fill="#666666" font-family="Arial" font-size="10px" text-anchor="middle" x="450.375" y="275.5">E2: 46.75"</text><line stroke="#8B4513" stroke-width="2" x1="381.75" x2="381.75" y1="298.5" y2="396.75" /><path d="M 381.75 298.5 A 98.25 98.25 0 0 0 283.5 396.75" fill="none" stroke="#8B4513" stroke-dasharray="2,2" stroke-width="1" /><line stroke="#666666" stroke-width="0.5" x1="401.75" x2="401.75" y1="298.5" y2="396.75" /><line stroke="#666666" stroke-width="0.5" x1="401.75" x2="401.75" y1="295.5" y2="301.5" /><line stroke="#666666" stroke-width="0.5" x1="401.75" x2="401.75" y1="393.75" y2="399.75" /><text fill="#666666" font-family="Arial" font-size="10px" text-anchor="middle" transform="rotate(-90 401.75 347.625)" x="401.75" y="347.625">E1: 32.75"</text><line stroke="#000000" stroke-width="3" x1="0" x2="272.25" y1="396.75" y2="396.75" /><line stroke="#666666" stroke-width="0.5" x1="0" x2="272.25" y1="416.75" y2="416.75" /><line stroke="#666666" stroke-width="0.5" x1="0" x2="0" y1="413.75" y2="419.75" /><line stroke="#666666" stroke-width="0.5" x1="272.25" x2="272.25" y1="413.75" y2="419.75" /><text fill="#666666" font-family="Arial" font-size="10px" text-anchor="middle" x="136.125" y="413.75">S1: 90.75"</text><line stroke="#999999" stroke-dasharray="5,5" stroke-width="1" x1="272.25" x2="368.25" y1="396.75" y2="396.75" /><line stroke="#666666" stroke-width="0.5" x1="272.25" x2="368.25" y1="416.75" y2="416.75" /><line stroke="#666666" stroke-width="0.5" x1="272.25" x2="272.25" y1="413.75" y2="419.75" /><line stroke="#666666" stroke-width="0.5" x1="368.25" x2="368.25" y1="413.75" y2="419.75" /><text fill="#666666" font-family="Arial" font-size="10px" text-anchor="middle" x="320.25" y="413.75">S2: 32" (entryway)</text><line stroke="#000000" stroke-width="3" x1="368.25" x2="381.75" y1="396.75" y2="396.75" /><line stroke="#666666" stroke-width="0.5" x1="368.25" x2="381.75" y1="416.75" y2="416.75" /><line stroke="#666666" stroke-width="0.5" x1="368.25" x2="368.25" y1="413.75" y2="419.75" /><line stroke="#666666" stroke-width="0.5" x1="381.75" x2="381.75" y1="413.75" y2="419.75" /><text fill="#666666" font-family="Arial" font-size="10px" text-anchor="middle" x="375.0" y="413.75">S3: 4.5"</text><line stroke="#000000" stroke-width="3" x1="0" x2="0" y1="0" y2="84.0" /><line stroke="#666666" stroke-width="0.5" x1="-20" x2="-20" y1="0" y2="84.0" /><line stroke="#666666" stroke-width="0.5" x1="-20" x2="-20" y1="-3" y2="3" /><line stroke="#666666" stroke-width="0.5" x1="-20" x2="-20" y1="81.0" y2="87.0" /><text fill="#666666" font-family="Arial" font-size="10px" text-anchor="middle" transform="rotate(-90 -20.0 42.0)" x="-20.0" y="42.0">W1: 28"</text><line stroke="#999999" stroke-dasharray="5,5" stroke-width="1" x1="0" x2="0" y1="84.0" y2="178.5" /><line stroke="#666666" stroke-width="0.5" x1="-20" x2="-20" y1="84.0" y2="178.5" /><line stroke="#666666" stroke-width="0.5" x1="-20" x2="-20" y1="81.0" y2="87.0" /><line stroke="#666666" stroke-width="0.5" x1="-20" x2="-20" y1="175.5" y2="181.5" /><text fill="#666666" font-family="Arial" font-size="10px" text-anchor="middle" transform="rotate(-90 -20.0 131.25)" x="-20.0" y="131.25">W2: 31.5" (entryway)</text><line stroke="#000000" stroke-width="3" x1="0" x2="0" y1="178.5" y2="396.75" /><line stroke="#666666" stroke-width="0.5" x1="-20" x2="-20" y1="178.5" y2="396.75" /><line stroke="#666666" stroke-width="0.5" x1="-20" x2="-20" y1="175.5" y2="181.5" /><line stroke="#666666" stroke-width="0.5" x1="-20" x2="-20" y1="393.75" y2="399.75" /><text fill="#666666" font-family="Arial" font-size="10px" text-anchor="middle" transform="rotate(-90 -20.0 287.625)" x="-20.0" y="287.625">W3: 72.75"</text></g><text fill="#333333" font-family="Arial" font-size="18px" font-weight="bold" text-anchor="middle" x="259.5" y="-94.57895013500945">Base Cabinets</text><g><line stroke="#333333" stroke-width="2" x1="469.0" x2="469.0" y1="50" y2="20" /><polygon fill="#333333" points="469.0,20 464.0,30 474.0,30" /><text fill="#333333" font-family="Arial" font-size="14px" font-weight="bold" text-anchor="middle" x="469.0" y="15">N</text></g><rect fill="#C0C0C0" height="108.0" stroke="#000" stroke-width="1" width="72.0" x="447.0" y="142.5" /><text fill="#000" font-size="10px" text-anchor="middle" x="483.0" y="196.5">FRIDGE</text><rect fill="#87CEEB" height="66.0" stroke="#000" stroke-width="1" width="99.0" x="66.75" y="0" /><ellipse cx="116.25" cy="33.0" fill="#4682B4" rx="39.6" ry="19.8" stroke="#000" stroke-width="1" /><rect fill="#708090" height="72.0" stroke="#000" stroke-width="1" width="72.0" x="165.75" y="0" /><text fill="#FFF" font-size="10px" text-anchor="middle" x="201.75" y="36.0">DW</text><rect fill="#8B4513" height="72.0" stroke="#000" stroke-width="2" width="90.0" x="180.0" y="324.75" /><text fill="#FFF" font-size="9px" font-weight="bold" text-anchor="middle" x="225.0" y="352.75">STOVE/</text><text fill="#FFF" font-size="9px" font-weight="bold" text-anchor="middle" x="225.0" y="362.75">MICRO</text><text fill="#FFF" font-size="8px" text-anchor="middle" x="225.0" y="372.75">84"H</text><rect fill="#8B4513" height="48.0" stroke="#000" stroke-width="2" width="72.0" x="447.0" y="94.5" /><text fill="#FFF" font-size="8px" font-weight="bold" text-anchor="middle" x="483.0" y="113.5">CAB</text><text fill="#FFF" font-size="7px" text-anchor="middle" x="483.0" y="123.5">84"H</text><rect fill="#8B4513" height="48.0" stroke="#000" stroke-width="2" width="72.0" x="447.0" y="250.5" /><text fill="#FFF" font-size="8px" font-weight="bold" text-anchor="middle" x="483.0" y="269.5">CAB</text><text fill="#FFF" font-size="7px" text-anchor="middle" x="483.0" y="279.5">84"H</text><rect fill="#D2691E" height="72.0" opacity="0.7" stroke="#000" stroke-width="1" width="66.0" x="0.0" y="0.0" /><text fill="#000" font-size="9px" font-weight="bold" text-anchor="middle" x="33.0" y="31.0">N1-1</text><text fill="#000" font-size="8px" text-anchor="middle" x="33.0" y="41.0">22"W</text><rect fill="#D2691E" height="72.0" opacity="0.7" stroke="#000" stroke-width="1" width="24.0" x="237.75" y="0.0" /><text fill="#000" font-size="9px" font-weight="bold" text-anchor="middle" x="249.75" y="31.0">N1-4</text><text fill="#000" font-size="8px" text-anchor="middle" x="249.75" y="41.0">8"W</text><rect fill="#A0522D" height="108.0" opacity="0.7" stroke="#000" stroke-width="1" width="108.0" x="0.0" y="288.75" /><text fill="#000" font-size="9px" font-weight="bold" text-anchor="middle" x="54.0" y="337.75">S1-1</text><text fill="#000" font-size="8px" text-anchor="middle" x="54.0" y="347.75">36"W</text><text fill="#FFF" font-size="10px" font-weight="bold" text-anchor="middle" x="54.0" y="342.75">LS</text><rect fill="#D2691E" height="72.0" opacity="0.7" stroke="#000" stroke-width="1" width="72.0" x="108.0" y="324.75" /><text fill="#000" font-size="9px" font-weight="bold" text-anchor="middle" x="144.0" y="355.75">S1-2</text><text fill="#000" font-size="8px" text-anchor="middle" x="144.0" y="365.75">24"W</text><rect fill="#D2691E" height="54.0" opacity="0.7" stroke="#000" stroke-width="1" width="72.0" x="0.0" y="178.5" /><text fill="#000" font-size="9px" font-weight="bold" text-anchor="middle" x="36.0" y="200.5">W3-1</text><text fill="#000" font-size="8px" text-anchor="middle" x="36.0" y="210.5">24"W</text><rect fill="#D2691E" height="54.0" opacity="0.7" stroke="#000" stroke-width="1" width="72.0" x="0.0" y="232.5" /><text fill="#000" font-size="9px" font-weight="bold" text-anchor="middle" x="36.0" y="254.5">W3-2</text><text fill="#000" font-size="8px" text-anchor="middle" x="36.0" y="264.5">24"W</text><text fill="#666666" font-family="Arial" font-size="10px" x="5" y="436.75">Scale: 3.0 px/in</text></g><g><text fill="#333333" font-family="Arial" font-size="14px" font-weight="bold" x="1358.0" y="114.57895013500945">Legend</text><rect fill="#f9f9f9" height="180" stroke="#cccccc" stroke-width="1" width="145" x="1353.0" y="124.57895013500945" /><line stroke="#000000" stroke-width="3" x1="1363.0" x2="1393.0" y1="144.57895013500945" y2="144.57895013500945" /><text fill="#333333" font-family="Arial" font-size="11px" x="1403.0" y="149.57895013500945">Wall</text><line stroke="#8B4513" stroke-width="2" x1="1363.0" x2="1393.0" y1="174.57895013500945" y2="174.57895013500945" /><path d="M 1363.0 174.57895013500945 A 15 15 0 0 1 1378.0 159.57895013500945" fill="none" stroke="#8B4513" stroke-dasharray="2,2" stroke-width="1" /><text fill="#333333" font-family="Arial" font-size="11px" x="1403.0" y="179.57895013500945">Door</text><line stroke="#4169E1" stroke-width="2" x1="1363.0" x2="1393.0" y1="204.57895013500945" y2="204.57895013500945" /><rect fill="#4169E1" height="4" opacity="0.3" width="30" x="1363.0" y="202.57895013500945" /><text fill="#333333" font-family="Arial" font-size="11px" x="1403.0" y="209.57895013500945">Window</text><line stroke="#666666" stroke-width="0.5" x1="1363.0" x2="1393.0" y1="234.57895013500945" y2="234.57895013500945" /><line stroke="#666666" stroke-width="0.5" x1="1363.0" x2="1363.0" y1="231.57895013500945" y2="237.57895013500945" /><line stroke="#666666" stroke-width="0.5" x1="1393.0" x2="1393.0" y1="231.57895013500945" y2="237.57895013500945" /><text fill="#333333" font-family="Arial" font-size="11px" x="1403.0" y="239.57895013500945">Dimension</text><rect fill="#F5F5DC" height="16" stroke="none" width="30" x="1363.0" y="256.57895013500945" /><text fill="#333333" font-family="Arial" font-size="11px" x="1403.0" y="269.57895013500945">Floor</text><text fill="#333333" font-family="Arial" font-size="10px" font-weight="bold" x="1363.0" y="299.57895013500945">Alcove:</text><text fill="#333333" font-family="Arial" font-size="9px" x="1368.0" y="314.57895013500945">N2 (north)</text><text fill="#333333" font-family="Arial" font-size="9px" x="1368.0" y="326.57895013500945">E1-E2 (SE)</text></g><g><text fill="#333333" font-family="Arial" font-size="14px" font-weight="bold" x="1538.0" y="114.57895013500945">Shopping List</text><rect fill="#f9f9f9" height="428" stroke="#cccccc" stroke-width="1" width="195" x="1533.0" y="124.57895013500945" /><text fill="#333333" font-family="Arial" font-size="11px" font-weight="bold" x="1543.0" y="144.57895013500945">Wall Cabinets:</text><text fill="#333333" font-family="Arial" font-size="10px" x="1548.0" y="159.57895013500945">• 7x 18"W x 42"H</text><text fill="#333333" font-family="Arial" font-size="10px" x="1548.0" y="174.57895013500945">• 2x 24"W x 42"H</text><text fill="#333333" font-family="Arial" font-size="10px" x="1548.0" y="189.57895013500945">• 1x 21"W x 42"H</text><text fill="#333333" font-family="Arial" font-size="10px" x="1548.0" y="204.57895013500945">• 2x 9"W x 42"H</text><text fill="#333333" font-family="Arial" font-size="11px" font-weight="bold" x="1543.0" y="224.57895013500945">Base Cabinets:</text><text fill="#333333" font-family="Arial" font-size="10px" x="1548.0" y="239.57895013500945">• 5x 18"W</text><text fill="#333333" font-family="Arial" font-size="10px" x="1548.0" y="254.57895013500945">• 1x 24"W</text><text fill="#333333" font-family="Arial" font-size="10px" x="1548.0" y="269.57895013500945">• 1x 9"W</text><text fill="#333333" font-family="Arial" font-size="10px" x="1548.0" y="284.57895013500945">• 1x 22"W</text><text fill="#333333" font-family="Arial" font-size="10px" x="1548.0" y="299.57895013500945">• 1x 36"W</text><text fill="#333333" font-family="Arial" font-size="10px" x="1548.0" y="314.57895013500945">• 1x 33"W</text><text fill="#333333" font-family="Arial" font-size="11px" font-weight="bold" x="1543.0" y="334.57895013500945">Appliances:</text><text fill="#333333" font-family="Arial" font-size="10px" x="1548.0" y="349.57895013500945">• 1x Refrigerator</text><text fill="#333333" font-family="Arial" font-size="10px" x="1548.0" y="364.57895013500945">• 1x Range/Stove</text><text fill="#333333" font-family="Arial" font-size="10px" x="1548.0" y="379.57895013500945">• 1x Kitchen Sink</text><text fill="#333333" font-family="Arial" font-size="10px" x="1548.0" y="394.57895013500945">• 1x Dishwasher</text><text fill="#333333" font-family="Arial" font-size="11px" font-weight="bold" x="1543.0" y="414.57895013500945">Other:</text><text fill="#333333" font-family="Arial" font-size="10px" x="1548.0" y="429.57895013500945">• 1x Countertop</text><text fill="#333333" font-family="Arial" font-size="10px" x="1548.0" y="444.57895013500945">• 1x Range Hood</text></g></svg>