<?xml version="1.0" encoding="utf-8" ?>
<svg baseProfile="full" height="496.75px" version="1.1" width="619.0px" xmlns="http://www.w3.org/2000/svg" xmlns:ev="http://www.w3.org/2001/xml-events" xmlns:xlink="http://www.w3.org/1999/xlink"><defs /><rect fill="white" height="496.75" width="619.0" x="0" y="0" /><g transform="translate(50,50)"><g><path d="M 0 0 L 519.0 0 L 519.0 298.5 L 381.75 298.5 L 381.75 396.75 L 0 396.75 Z" fill="#F5F5DC" stroke="none" /></g><g><line stroke="#000000" stroke-width="3" x1="0" x2="261.0" y1="0" y2="0" /><line stroke="#666666" stroke-width="0.5" x1="0" x2="261.0" y1="-20" y2="-20" /><line stroke="#666666" stroke-width="0.5" x1="0" x2="0" y1="-23" y2="-17" /><line stroke="#666666" stroke-width="0.5" x1="261.0" x2="261.0" y1="-23" y2="-17" /><text fill="#666666" font-family="Arial" font-size="10px" text-anchor="middle" x="130.5" y="-23.0">N1: 87"</text><line stroke="#4169E1" stroke-dasharray="10,5" stroke-width="2" x1="261.0" x2="519.0" y1="0" y2="0" /><line stroke="#666666" stroke-width="0.5" x1="261.0" x2="519.0" y1="-20" y2="-20" /><line stroke="#666666" stroke-width="0.5" x1="261.0" x2="261.0" y1="-23" y2="-17" /><line stroke="#666666" stroke-width="0.5" x1="519.0" x2="519.0" y1="-23" y2="-17" /><text fill="#666666" font-family="Arial" font-size="10px" text-anchor="middle" x="390.0" y="-23.0">N2: 86" (window)</text><line stroke="#000000" stroke-width="3" x1="0" x2="0" y1="0" y2="84.0" /><line stroke="#666666" stroke-width="0.5" x1="-20" x2="-20" y1="0" y2="84.0" /><line stroke="#666666" stroke-width="0.5" x1="-20" x2="-20" y1="-3" y2="3" /><line stroke="#666666" stroke-width="0.5" x1="-20" x2="-20" y1="81.0" y2="87.0" /><text fill="#666666" font-family="Arial" font-size="10px" text-anchor="middle" transform="rotate(-90 -20.0 42.0)" x="-20.0" y="42.0">W1: 28"</text><line stroke="#8B4513" stroke-width="2" x1="0" x2="0" y1="84.0" y2="178.5" /><path d="M 0 84.0 Q 94.5 84.0 0 178.5" fill="none" stroke="#8B4513" stroke-dasharray="5,3" stroke-width="1" /><line stroke="#666666" stroke-width="0.5" x1="-20" x2="-20" y1="84.0" y2="178.5" /><line stroke="#666666" stroke-width="0.5" x1="-20" x2="-20" y1="81.0" y2="87.0" /><line stroke="#666666" stroke-width="0.5" x1="-20" x2="-20" y1="175.5" y2="181.5" /><text fill="#666666" font-family="Arial" font-size="10px" text-anchor="middle" transform="rotate(-90 -20.0 131.25)" x="-20.0" y="131.25">W2: 31.5" (door)</text><line stroke="#000000" stroke-width="3" x1="0" x2="0" y1="178.5" y2="396.75" /><line stroke="#666666" stroke-width="0.5" x1="-20" x2="-20" y1="178.5" y2="396.75" /><line stroke="#666666" stroke-width="0.5" x1="-20" x2="-20" y1="175.5" y2="181.5" /><line stroke="#666666" stroke-width="0.5" x1="-20" x2="-20" y1="393.75" y2="399.75" /><text fill="#666666" font-family="Arial" font-size="10px" text-anchor="middle" transform="rotate(-90 -20.0 287.625)" x="-20.0" y="287.625">W3: 72.75"</text><line stroke="#000000" stroke-width="3" x1="0" x2="272.25" y1="396.75" y2="396.75" /><line stroke="#666666" stroke-width="0.5" x1="0" x2="272.25" y1="416.75" y2="416.75" /><line stroke="#666666" stroke-width="0.5" x1="0" x2="0" y1="413.75" y2="419.75" /><line stroke="#666666" stroke-width="0.5" x1="272.25" x2="272.25" y1="413.75" y2="419.75" /><text fill="#666666" font-family="Arial" font-size="10px" text-anchor="middle" x="136.125" y="413.75">S1: 90.75"</text><line stroke="#8B4513" stroke-width="2" x1="272.25" x2="368.25" y1="396.75" y2="396.75" /><path d="M 272.25 396.75 Q 272.25 300.75 368.25 396.75" fill="none" stroke="#8B4513" stroke-dasharray="5,3" stroke-width="1" /><line stroke="#666666" stroke-width="0.5" x1="272.25" x2="368.25" y1="416.75" y2="416.75" /><line stroke="#666666" stroke-width="0.5" x1="272.25" x2="272.25" y1="413.75" y2="419.75" /><line stroke="#666666" stroke-width="0.5" x1="368.25" x2="368.25" y1="413.75" y2="419.75" /><text fill="#666666" font-family="Arial" font-size="10px" text-anchor="middle" x="320.25" y="413.75">S2: 32" (door)</text><line stroke="#000000" stroke-width="3" x1="368.25" x2="381.75" y1="396.75" y2="396.75" /><line stroke="#666666" stroke-width="0.5" x1="368.25" x2="381.75" y1="416.75" y2="416.75" /><line stroke="#666666" stroke-width="0.5" x1="368.25" x2="368.25" y1="413.75" y2="419.75" /><line stroke="#666666" stroke-width="0.5" x1="381.75" x2="381.75" y1="413.75" y2="419.75" /><text fill="#666666" font-family="Arial" font-size="10px" text-anchor="middle" x="375.0" y="413.75">S3: 4.5"</text><line stroke="#000000" stroke-width="3" x1="519.0" x2="519.0" y1="0" y2="298.5" /><line stroke="#666666" stroke-width="0.5" x1="539.0" x2="539.0" y1="0" y2="298.5" /><line stroke="#666666" stroke-width="0.5" x1="539.0" x2="539.0" y1="-3" y2="3" /><line stroke="#666666" stroke-width="0.5" x1="539.0" x2="539.0" y1="295.5" y2="301.5" /><text fill="#666666" font-family="Arial" font-size="10px" text-anchor="middle" transform="rotate(-90 539.0 149.25)" x="539.0" y="149.25">E3: 99.5"</text><line stroke="#000000" stroke-width="3" x1="381.75" x2="406.5" y1="298.5" y2="298.5" /><line stroke="#8B4513" stroke-width="2" x1="406.5" x2="461.25" y1="298.5" y2="298.5" /><path d="M 406.5 298.5 Q 433.875 243.75 461.25 298.5" fill="none" stroke="#8B4513" stroke-dasharray="5,3" stroke-width="1" /><line stroke="#000000" stroke-width="3" x1="461.25" x2="522.0" y1="298.5" y2="298.5" /><line stroke="#666666" stroke-width="0.5" x1="381.75" x2="519.0" y1="278.5" y2="278.5" /><line stroke="#666666" stroke-width="0.5" x1="381.75" x2="381.75" y1="275.5" y2="281.5" /><line stroke="#666666" stroke-width="0.5" x1="519.0" x2="519.0" y1="275.5" y2="281.5" /><text fill="#666666" font-family="Arial" font-size="10px" text-anchor="middle" x="450.375" y="275.5">E2: 46.75"</text><line stroke="#000000" stroke-width="3" x1="381.75" x2="381.75" y1="298.5" y2="396.75" /><line stroke="#666666" stroke-width="0.5" x1="401.75" x2="401.75" y1="298.5" y2="396.75" /><line stroke="#666666" stroke-width="0.5" x1="401.75" x2="401.75" y1="295.5" y2="301.5" /><line stroke="#666666" stroke-width="0.5" x1="401.75" x2="401.75" y1="393.75" y2="399.75" /><text fill="#666666" font-family="Arial" font-size="10px" text-anchor="middle" transform="rotate(-90 401.75 347.625)" x="401.75" y="347.625">E1: 32.75"</text></g><text fill="#333333" font-family="Arial" font-size="20px" font-weight="bold" text-anchor="middle" x="259.5" y="-30">Kitchen Layout</text><text fill="#666666" font-family="Arial" font-size="12px" x="5" y="436.75">Scale: 3.0 pixels/inch</text><g><line stroke="#333333" stroke-width="2" x1="469.0" x2="469.0" y1="50" y2="20" /><polygon fill="#333333" points="469.0,20 464.0,30 474.0,30" /><text fill="#333333" font-family="Arial" font-size="14px" font-weight="bold" text-anchor="middle" x="469.0" y="15">N</text></g></g></svg>